<svg version="1.1" xmlns="http://www.w3.org/2000/svg" xmlns:xlink="http://www.w3.org/1999/xlink" class="thumbnail-icon" viewBox="0.000014662742614746094 0.8626708984375 199.99998474121094 198.27467346191406"><g data-paper-data="{&quot;fillRule&quot;:&quot;evenodd&quot;,&quot;isIcon&quot;:&quot;true&quot;,&quot;iconType&quot;:&quot;icon&quot;,&quot;rawIconId&quot;:&quot;1593277&quot;,&quot;selectedEffects&quot;:{&quot;container&quot;:&quot;&quot;,&quot;transformation&quot;:&quot;&quot;,&quot;pattern&quot;:&quot;&quot;},&quot;isDetailed&quot;:false,&quot;iconStyle&quot;:&quot;standalone&quot;,&quot;bounds&quot;:{&quot;x&quot;:199.9973019283502,&quot;y&quot;:115,&quot;width&quot;:150.00539614329958,&quot;height&quot;:148.7113522739608}}"><path d="M124.61483,158.94174c69.71155,-24.67981 66.30084,-116.0489 16.15236,-158.07907c43.55063,19.48671 65.9884,72.08974 57.43569,118.04219c-6.69091,35.94877 -33.64512,65.61679 -68.51319,75.61936c-18.34987,5.26387 -37.99493,6.29449 -56.6045,1.67699c-36.64921,-9.09361 -65.432,-40.24673 -71.78202,-77.42355c-5.08653,-29.7797 4.77181,-60.43424 28.61895,-79.78126c24.88567,-20.18995 62.18502,-24.94084 89.40204,-6.47929c26.81815,18.19077 36.45156,56.93445 15.90728,83.59372c-10.48298,13.60341 -27.81797,21.52171 -45.04061,18.90118c-18.00729,-2.73996 -32.02086,-18.97387 -29.58515,-37.51829c3.04952,24.06911 31.52871,33.18067 48.63701,16.38924c15.78164,-15.48936 7.26882,-39.54562 -8.72555,-51.27992c-13.33329,-9.78209 -32.12833,-7.33485 -45.25666,1.61694c-16.20022,11.04604 -22.52108,30.49721 -18.97121,49.35363c7.77338,41.29285 51.33664,58.46298 88.32555,45.36812z" fill-rule="evenodd"></path></g></svg>