<?xml version="1.0" encoding="UTF-8" standalone="no"?>
<!DOCTYPE svg PUBLIC "-//W3C//DTD SVG 1.1//EN" "http://www.w3.org/Graphics/SVG/1.1/DTD/svg11.dtd">
<svg width="100%" height="100%" viewBox="0 0 1024 1024" version="1.1" xmlns="http://www.w3.org/2000/svg" xmlns:xlink="http://www.w3.org/1999/xlink" xml:space="preserve" xmlns:serif="http://www.serif.com/" style="fill-rule:evenodd;clip-rule:evenodd;stroke-linejoin:round;stroke-miterlimit:2;">
    <g id="Logo-Brisa" serif:id="Logo Brisa" transform="matrix(1.05956,0,0,1.05956,14.3122,3.48895e-14)">
        <g id="Turquesa" transform="matrix(1.38334,0,0,1.38334,-231.816,-212.301)">
            <path d="M464.875,180.802C468.835,178.903 470.875,178.248 470.551,178.832C470.551,178.832 468.437,179.562 464.875,180.802C455.228,185.426 434.192,197.43 408.181,216.9C322.797,280.813 306.742,350.026 307.705,351.068C307.705,351.068 344.349,321.165 354.252,314.863C381.639,297.435 432.202,266.54 507.352,245.778C537.299,237.505 572.341,235.366 580.853,234.711C614.974,232.087 672.309,247.171 688.736,255.755C726.205,275.335 768.857,313.454 780.371,354.258C787.763,380.455 785.37,424.259 780.467,430.801C780.467,430.801 778.579,400.369 777.764,397.743C765.818,359.251 719.078,325.914 682.044,304.474L682.041,304.473C675.002,299.193 633.715,279.163 633.792,279.24C634.756,280.203 656,289.397 682.044,304.474C699.819,317.806 733.521,366.131 740.878,387.421C753.544,424.071 748.719,457.752 748.719,458.082C748.719,461.773 740.726,484.314 743.988,485.945C754.448,491.175 779.511,488.963 792.41,484.663C803.138,481.087 818.618,471.983 818.618,471.983C818.618,471.983 809.573,486.969 808.443,487.534C802.229,490.642 763.224,509.228 766.335,518.56C768.488,525.019 789.035,523.965 797.876,545.022C803.7,558.892 794.519,579.206 789.147,589.95C785.865,596.513 793.183,621.433 795.084,629.036C798.999,644.696 783.223,682.952 772.325,693.85C750.362,715.814 704.343,762.688 674.857,772.517C661.874,776.845 644.279,772.051 630.754,774.756C625.329,775.841 605.437,780.372 612.025,780.372C623.316,780.372 636.875,793.949 650.116,795.56C678.781,799.047 707.382,786.181 720.445,779.171C725.037,776.531 727.797,774.909 727.797,774.909C727.797,774.909 725.112,776.666 720.445,779.171C702.25,789.632 655.283,816.087 637.255,821.004C620.672,825.526 602.077,821.113 585.306,824.467C560.577,829.413 536.59,831.753 511.091,828.92C499.835,827.669 488.931,823.658 477.448,822.983C438.2,820.674 382.686,808.852 347.82,789.834C326.894,778.419 310.215,756.763 294.881,738.873C282.509,724.439 269.065,709.7 259.258,693.355C253.402,683.595 250.459,672.35 244.415,662.68C226.92,634.688 214.344,607.318 207.803,574.612C205.681,564.003 200.398,554.514 199.392,543.442C193.491,478.538 213.225,416.83 238.973,358.896C244.971,345.399 255.136,333.414 263.216,321.295C296.562,271.276 333.814,236.272 387.401,209.478C397.759,204.3 447.853,186.727 464.875,180.802ZM365.938,711.461C525.075,825.387 655.828,705.875 676.208,667.648C701.098,620.964 694.936,564.562 681.372,546.721C672.841,535.5 653.192,517.426 638.99,513.32C628.524,510.294 615.473,508.117 615.473,508.117C615.473,508.117 636.369,499.311 648.236,487.49C668.604,467.201 673.18,436.644 667.894,410.212C660.689,374.186 631.407,348.686 598.888,335.213C592.749,332.67 575.906,330.495 575.906,330.495C575.906,330.495 593.849,343.512 602.188,356.997C613.226,374.846 624.052,397.878 621.091,425.539C617.521,458.901 600.763,479.572 581.996,494.482C568.152,505.48 535.644,514.198 535.644,514.198C535.644,514.198 552.017,518.169 564.784,522.796C584.222,529.842 608.785,546.673 620.048,563.568C634.836,585.75 645.127,623.732 630.366,665.6C625.148,680.401 604.464,706.717 589.357,715.535C554.218,736.048 486.78,756.085 411.319,721.343C366.849,700.869 319.786,653.327 311.305,634.992C307.625,627.037 308.476,546.634 308.476,542.242C308.476,514.685 311.86,419.816 306.886,415.064C300.608,409.067 279.631,428.928 269.032,440.489C260.92,449.337 249.96,464.364 245.564,475.165C222.951,530.728 268.053,594.258 272.27,602.43C294.743,645.977 338.777,692.017 365.938,711.461ZM400.951,549.282C403.598,549.768 489.093,549.938 492.126,550.08C532.57,551.973 566.272,566.897 583.35,589.625C587.356,594.956 602.817,616.816 598.823,647.039C594.038,683.242 564.945,711.474 536.862,717.739C523.804,720.652 495.015,724.944 466.296,720.68C435.477,716.104 405.141,703.17 403.064,685.61C401.085,668.88 403.825,551.876 400.951,549.282C400.891,549.271 400.874,549.26 400.901,549.248C400.918,549.256 400.935,549.267 400.951,549.282ZM401.224,476.71C405.748,400.43 392.982,358.394 410.435,343.729C427.21,329.634 455.126,327.06 471.971,326.826C505.194,326.366 536.832,326.34 564.832,356.485C591.106,384.772 582.382,425.907 580.245,431.011C555.964,488.998 478.139,476.197 401.224,476.71ZM312.476,391.415C317.089,378.462 357.574,332.194 404.067,310.68C496.087,268.098 557.53,283.371 556.76,283.481C550.957,284.31 494.525,284.414 422.459,314.207C387.386,328.706 349.386,360.679 331.192,383.123C324.618,391.232 312.476,391.415 312.476,391.415Z" style="fill:rgb(62,204,177);"/>
            <path d="M533.85,191.576C537.723,181.314 551.936,172.437 563.884,184.386C564.542,185.043 567.49,191.592 567.49,192.37C567.49,192.646 563.255,188.493 550.633,187.334C544.905,186.808 533.85,191.576 533.85,191.576Z" style="fill:rgb(62,204,177);"/>
            <path d="M597.56,228.117C595.841,228.977 609.882,217.137 615.009,214.859C634.399,206.241 656.11,210.125 656.194,232.946C656.199,234.457 649.765,226.753 631.012,226.037C610.066,225.237 604.708,226.618 597.56,228.117Z" style="fill:rgb(62,204,177);"/>
            <path d="M726.345,250.683C726.345,250.683 742.933,254.84 757.174,255.778C771.61,256.73 782.256,243.519 782.256,243.519C782.256,243.519 781.632,259.101 773.953,263.873C755.263,275.487 726.345,255.485 726.345,250.683Z" style="fill:rgb(62,204,177);"/>
            <path d="M786.927,321.593C786.927,321.593 807.262,331.291 808.536,349.916C809.145,358.81 793.469,356.703 793.469,356.703C793.469,356.703 795.377,351.631 793.466,342.056C791.897,334.19 786.927,322.193 786.927,321.593Z" style="fill:rgb(62,204,177);"/>
            <path d="M346.015,308.421C346.015,308.421 379.169,264.567 423.624,233.128C439.098,222.185 481.809,197.826 480.018,198.901C476.187,201.2 466.827,230.123 473.813,228.285C484.876,225.375 546.572,227.309 544.571,227.777C451.676,249.489 414.318,266.381 346.015,308.421Z" style="fill:rgb(62,204,177);"/>
        </g>
        <g id="Azul-oscuro" serif:id="Azul oscuro" transform="matrix(1.38334,0,0,1.38334,-231.816,-212.301)">
            <path d="M734.163,512C734.163,512 752.233,512.553 762.375,508.042C800.409,491.125 822.938,466.435 822.938,466.435C822.938,466.435 821.841,483.69 806.368,497.687C789.33,513.099 770.439,514.143 770.439,514.143C770.439,514.143 779.341,517.485 784.136,522.412C789.675,528.103 792.905,535.123 792.905,535.123C792.905,535.123 790.639,532.139 783.875,529.509C775.669,526.317 774.341,526.094 758.819,525.385C752.694,525.105 739.889,522.846 736.988,519.174C736.471,518.52 734.163,512.886 734.163,512Z" style="fill:rgb(12,34,45);"/>
            <path d="M362.284,291.41C362.284,291.41 389.727,258.714 397.876,251.624C415.045,236.687 449.998,208.516 489.75,188.592C501.92,182.492 523.844,174.718 523.844,174.718C523.844,174.718 497.687,189.683 489.95,197.803C487.466,200.411 478.663,215.019 480.202,215.252C483.043,215.683 498.629,212.045 516.833,210.576C533.577,209.224 560.412,206.573 576.081,200.043C583.478,196.961 594.599,190.372 599.823,184.401C601.952,181.968 604.762,176.157 604.762,176.157C604.762,176.157 604.67,195.635 581.034,208.686C575.475,211.755 557.061,223.526 512,224.172C506.755,224.247 479.998,229.029 468.545,233.194C455.384,237.979 425.004,252.091 417.15,256.92C404.669,264.596 362.284,290.645 362.284,291.41Z" style="fill:rgb(12,34,45);"/>
            <path d="M533.85,191.576C537.723,181.314 553.972,178.464 564.938,188.242C565.632,188.861 567.49,191.592 567.49,192.37C567.49,192.646 563.255,188.493 550.633,187.334C544.905,186.808 533.85,191.576 533.85,191.576Z" style="fill:rgb(12,34,45);"/>
            <path d="M597.56,228.117C596.275,228.76 603.314,221.459 609.778,217.933C631.17,206.264 655.126,224.164 656.194,232.946C656.376,234.446 649.765,226.753 631.012,226.037C610.066,225.237 604.708,226.618 597.56,228.117Z" style="fill:rgb(12,34,45);"/>
            <path d="M726.345,250.683C726.345,250.683 748.781,260.866 763.022,261.804C777.457,262.756 782.256,243.519 782.256,243.519C782.256,243.519 781.632,259.101 773.953,263.873C755.263,275.487 726.345,255.485 726.345,250.683Z" style="fill:rgb(12,34,45);"/>
            <path d="M786.927,321.593C786.927,321.593 801.256,327.532 802.53,346.157C803.138,355.05 793.469,356.703 793.469,356.703C793.469,356.703 795.377,351.631 793.466,342.056C791.897,334.19 786.927,322.193 786.927,321.593Z" style="fill:rgb(12,34,45);"/>
            <path d="M732.393,769.842C723.089,777.526 706.843,792.763 673.099,810.401C643.037,826.114 601.16,841.6 540.534,850.354C479.791,859.125 405.716,832.288 391.894,826.167C375.532,818.921 293.924,788.652 234.513,692.489C212.783,657.317 199.615,620.594 191.498,578.675C190.048,571.187 185.834,522.63 186.568,504.374C190.291,411.74 230.501,325.473 282.979,271.716C297.942,256.387 330.192,226.416 348.476,215.268C393.348,187.91 432.58,171.43 479.521,160.512C534.062,147.828 582.417,156.153 582.417,156.153C582.417,156.153 541.47,158.082 531.256,160.125C505.479,165.28 495.391,169.687 470.13,181.16C453.005,188.938 426.965,201.592 408.199,213.255C358.922,243.88 293.478,295.009 253.357,378.13C227.854,430.966 226.277,478.877 226.277,478.877C226.277,478.877 236.09,458.146 240.74,450.01C256.108,423.115 313.738,352.985 363.447,317.271C438.012,263.698 505.449,262.022 524.861,258.786C559.806,252.962 623.33,265.251 628.703,266.617C666.903,276.325 704.787,296.138 730.634,314.917C752.347,330.694 776.849,364.58 782.12,399.041C782.684,402.73 781.085,428.182 781.085,428.182C781.085,428.182 777.4,409.219 775.928,403.331C772.296,388.805 763.749,371.873 752.805,361.984C679.38,295.641 631.486,287.939 604.939,289.04C583.01,289.948 558.315,296.759 559.794,296.865C562.966,297.093 595.759,298.713 609.516,303.151C667.702,321.923 686.333,343.248 696.912,353.308C712.392,368.027 725.101,393.593 733.007,413.775C741.752,436.098 738.104,452.295 744.38,452.774C758.71,453.868 780.161,455.244 796.044,436.094C818.257,409.312 814.848,368.234 814.848,368.234C814.848,368.234 825.503,393.292 821.936,415.827C815.052,459.315 796.019,478.741 762.087,487.225C752.203,489.695 733.688,489.17 733.688,488.651C733.688,474.403 731.759,450.972 728.088,436.288C723.886,419.478 715.035,402.462 704.153,387.99C680.501,356.534 655.234,346.135 656.191,346.613C660.32,348.678 681.381,376.581 686.281,390.243C695.508,415.97 703.366,451.707 664.384,502.693C663.858,503.38 686.096,506.564 699.147,512C712.632,517.616 738.357,537.164 747.444,555.338C755.201,570.852 757.834,582.764 757.834,601.066C757.834,607.524 753.88,635.834 753.88,632.94C753.88,604.562 747.694,570.483 724.584,544.95C708.473,527.15 688.037,522.348 688.037,522.348C688.037,522.348 712.589,542.992 725.589,579.291C736.067,608.545 733.845,637.793 723.799,667.933C713.016,700.282 701.789,717.651 680.391,740.378C662,759.912 648.025,768.689 648.025,768.689C648.025,768.689 682.356,764.322 711.406,742.298C744.376,717.303 771.563,673.116 777.11,647.941C783.534,618.784 783.576,592.891 778.841,571.71C775.043,554.718 762.097,537.111 762.097,537.111C762.097,537.111 785.384,536.304 790.92,550.678C791.611,552.471 792.411,563.493 792.411,563.493C792.411,563.493 798.047,558.733 804.306,543.51C809.073,531.918 805.737,505.549 805.737,505.549C805.737,505.549 827.456,529.55 816.86,567.432C812.394,583.401 803.405,592.624 799.309,596.719C799.027,597.002 796.054,599.597 793.558,601.779C792.171,602.991 798.219,612.999 798.704,612.767C802.996,610.719 819.857,597.478 824.02,591.339C824.124,591.186 804.981,647.311 793.508,669.62C779.518,696.822 757.266,729.923 733.286,749.106C714.76,763.927 696.647,774.703 675.351,779.792C642.372,787.674 579.865,789.228 579.865,789.228C579.865,789.228 629.847,763.183 644.567,751.57C659.635,739.683 676.246,722.567 686.731,707.365C701.106,686.521 709.222,658.791 711.468,633.789C714.636,598.515 697.303,561.631 683.129,545.919C673.687,535.453 653.192,517.426 638.99,513.32C628.524,510.294 615.473,508.117 615.473,508.117C615.473,508.117 636.369,499.311 648.236,487.49C668.604,467.201 673.18,436.644 667.894,410.212C660.689,374.186 631.407,348.686 598.888,335.213C592.749,332.67 575.906,330.495 575.906,330.495C575.906,330.495 593.849,343.512 602.188,356.997C613.226,374.846 624.052,397.878 621.091,425.539C617.521,458.901 600.763,479.572 581.996,494.482C568.152,505.48 535.644,514.198 535.644,514.198C535.644,514.198 552.017,518.169 564.784,522.796C584.222,529.842 608.785,546.673 620.048,563.568C634.836,585.75 645.127,623.732 630.366,665.6C625.148,680.401 604.464,706.717 589.357,715.535C554.218,736.048 486.78,756.085 411.319,721.343C366.849,700.869 319.786,653.327 311.305,634.992C307.625,627.037 308.476,546.634 308.476,542.242C308.476,514.685 311.86,419.816 306.886,415.064C300.608,409.067 279.631,428.928 269.032,440.489C260.92,449.337 250.779,464.735 245.564,475.165C238.018,490.256 227.751,510.41 225.396,527.101C222.217,549.636 225.864,570.399 230.01,593.177C232.737,608.163 249.928,642.328 258.212,654.11C267.5,667.319 275.647,676.818 277.695,679.63C301.689,712.568 321.202,731.1 349.614,748.667C374.088,763.798 390.763,776.903 406.656,783.064C433.552,793.492 449.204,794.088 458.151,795.24C475.01,797.412 506.865,797.029 506.865,797.029C506.865,797.093 475.09,800.903 466.844,800.404C442.68,798.94 421.093,797.012 399.557,789.833C390.272,786.738 363.836,774.966 363.836,774.966C363.836,774.966 381.798,786.391 389.218,790.101C395.571,793.277 404.631,798.783 412.127,801.363C419.776,803.996 447.553,815.063 460.39,817.943C474.767,821.168 498.003,826.55 512,827.889C533.66,829.961 544.688,830.34 584.745,824.835C590.813,824.001 614.666,818.196 621.117,816.046C629.084,813.39 657.041,805.001 678.728,796.797C714.441,783.286 726.602,772.737 732.393,769.842L732.459,769.79C732.76,769.562 732.961,769.545 732.502,769.786L732.393,769.842ZM400.951,549.282C403.598,549.768 489.093,549.938 492.126,550.08C532.57,551.973 566.272,566.897 583.35,589.625C587.356,594.956 602.817,616.816 598.823,647.039C594.038,683.242 564.945,711.474 536.862,717.739C523.804,720.652 495.015,724.944 466.296,720.68C435.477,716.104 405.141,703.17 403.064,685.61C401.085,668.88 403.825,551.876 400.951,549.282C400.891,549.271 400.874,549.26 400.901,549.248C400.918,549.256 400.935,549.267 400.951,549.282ZM401.224,476.71C405.748,400.43 392.982,358.394 410.435,343.729C427.21,329.634 455.126,327.06 471.971,326.826C505.194,326.366 536.832,326.34 564.832,356.485C591.106,384.772 582.382,425.907 580.245,431.011C555.964,488.998 478.139,476.197 401.224,476.71ZM312.476,391.415C317.089,378.462 357.574,332.194 404.067,310.68C496.087,268.098 557.53,283.371 556.76,283.481C550.957,284.31 494.525,284.414 422.459,314.207C387.386,328.706 349.386,360.679 331.192,383.123C324.618,391.232 312.476,391.415 312.476,391.415Z" style="fill:rgb(12,34,45);"/>
        </g>
    </g>
</svg>
